<?xml version="1.0" encoding="UTF-8"?>
<svg xmlns="http://www.w3.org/2000/svg" width="24" height="24" class="bi ox-ai" viewBox="0 0 24 24" fill="currentColor">
  <defs>
    <style> .l { opacity: .80; }</style>
  </defs>
  <path class="l" d="m8.48,2.62c.32,0,.59.26.59.59v1.76h1.17v-1.76c0-.32.26-.59.59-.59s.59.26.59.59v1.76h1.17v-1.76c0-.32.26-.59.59-.59s.59.26.59.59v1.76h1.17v-1.76c0-.32.26-.59.59-.59s.59.26.59.59v1.76c1.62,0,2.93,1.31,2.93,2.93h1.76c.32,0,.59.26.59.59s-.26.59-.59.59h-1.76v1.17h1.76c.32,0,.59.26.59.59s-.26.59-.59.59h-1.76v1.17h1.76c.32,0,.59.26.59.59s-.26.59-.59.59h-1.76v1.17h1.76c.32,0,.59.26.59.59s-.26.59-.59.59h-1.76c0,1.62-1.31,2.93-2.93,2.93v1.76c0,.32-.26.59-.59.59s-.59-.26-.59-.59v-1.76h-1.17v1.76c0,.32-.26.59-.59.59s-.59-.26-.59-.59v-1.76h-1.17v1.76c0,.32-.26.59-.59.59s-.59-.26-.59-.59v-1.76h-1.17v1.76c0,.32-.26.59-.59.59s-.59-.26-.59-.59v-1.76c-1.62,0-2.93-1.31-2.93-2.93h-1.76c-.32,0-.59-.26-.59-.59s.26-.59.59-.59h1.76v-1.17h-1.76c-.32,0-.59-.26-.59-.59s.26-.59.59-.59h1.76v-1.17h-1.76c-.32,0-.59-.26-.59-.59s.26-.59.59-.59h1.76v-1.17h-1.76c-.32,0-.59-.26-.59-.59s.26-.59.59-.59h1.76c0-1.62,1.31-2.93,2.93-2.93v-1.76c0-.32.26-.59.59-.59Zm-.59,3.52c-.97,0-1.76.79-1.76,1.76v8.21c0,.97.79,1.76,1.76,1.76h8.21c.97,0,1.76-.79,1.76-1.76V7.89c0-.97-.79-1.76-1.76-1.76H7.89Z"/>
  <path d="m8.38,14.22s-.04-.06-.04-.1v-.06s1.67-4.44,1.67-4.44c.05-.11.13-.17.25-.17h.76c.12,0,.2.06.25.17l1.65,4.44v.06s0,.08-.03.1c-.03.03-.06.04-.1.04h-.61c-.1,0-.16-.04-.2-.13l-.32-.83h-2.04l-.32.83c-.04.09-.1.13-.2.13h-.61s-.08-.01-.1-.04Zm1.47-1.72h1.56l-.78-2.12-.78,2.12Z"/>
  <path d="m13.61,14.21s-.05-.07-.05-.12v-4.49c0-.05.02-.09.05-.12.03-.03.07-.04.12-.04h.66c.05,0,.09.02.12.04.03.03.04.07.04.12v4.49s-.02.09-.04.12c-.03.03-.07.05-.12.05h-.66s-.09-.02-.12-.05Z"/>
</svg>
