<svg width="16" height="16" class="bi bi-ox-mail" fill="currentColor" viewBox="0 0 16 16" xmlns="http://www.w3.org/2000/svg" xmlns:xlink="http://www.w3.org/1999/xlink">
  <g transform="translate(0 2)" fill-rule="evenodd">
    <path d="M13.964 10.999H1.996c-.55 0-.996-.393-.996-.875V2.957l5.953 4.167a1.799 1.799 0 0 0 2.054 0l5.953-4.167v7.167c0 .482-.447.875-.996.875M1.996 1h11.968c.5 0 .899.332.968.755l-6.5 4.549a.79.79 0 0 1-.905 0l-6.5-4.549c.07-.423.469-.755.969-.755m11.968-1H1.996C.896 0 0 .841 0 1.875v8.249c0 1.034.896 1.875 1.996 1.875h11.968c1.1 0 1.996-.841 1.996-1.875V1.875C15.96.841 15.065 0 13.964 0"/>
  </g>
</svg>
