<svg xmlns="http://www.w3.org/2000/svg" viewBox="0 0 16 16" fill="currentColor" width="16" height="16"><path d="M13.3 11.1H9.545a.5.5 0 010-1H13.3a.5.5 0 010 1zM13.3 8.473H9.545a.5.5 0 110-1H13.3a.5.5 0 010 1zM7.472 8.267H5.427a.646.646 0 01-.647-.644V5.61a.656.656 0 01.208-.476.625.625 0 01.485-.173 2.839 2.839 0 012.651 2.616.645.645 0 01-.173.481.655.655 0 01-.479.209zm-1.692-1h1.278A1.842 1.842 0 005.78 6.021z"/><path d="M4.82 10.042a1.771 1.771 0 01-.67-3.412c.053 0 .048-.057.048-.057v-.91s.013-.106-.112-.065a2.772 2.772 0 103.431 3.315c.009-.036 0-.063-.052-.064h-.91c-.025 0-.088-.005-.088.061a1.773 1.773 0 01-1.647 1.132z"/><rect x="9.045" y="4.9" width="1.533" height="1" rx=".5"/><path d="M11.5 1.75H2a2 2 0 00-2 2v8.51a2 2 0 002 1.99h12a2 2 0 002-1.995V6.239zm3.5 9.236v1.269a1 1 0 01-1 1H2a1 1 0 01-1-1v-8.51a1 1 0 011-1h9.5v2a1.5 1.5 0 001.5 1.5h2v4.747z"/></svg>