<svg width="200" height="96" viewBox="0 0 200 96" xmlns="http://www.w3.org/2000/svg" fill-rule="nonzero">
<path d="M173.151 43.1c-.9-1.2-2.3-2.1-3.8-2.3l-34.8-4.7c-.3-.6-.6-1.1-1.1-1.6-1.2-1.3-2.9-2-4.7-2h-59.4c-1.9 0-3.6.8-4.9 2.3-.4.5-.7 1-1 1.6l-33.6 4.5c-1.5.2-2.9 1-3.8 2.3-.8 1.1-1.2 2.5-1 3.9l4.2 31.1a5.18 5.18 0 0 0 2.1 3.6c1 .7 2.1 1.1 3.3 1.1h.7l28-3.7c1 2.2 3.2 3.8 5.8 3.8h59.4c2.7 0 4.9-1.6 5.9-3.9l29.1 3.9h.7c1.2 0 2.4-.4 3.3-1.1 1.2-.9 1.9-2.2 2.1-3.6l4.2-31.1c.5-1.6.1-3-.7-4.1z" fill="var(--background)"/>
<path d="M169.351 40.8l-34.8-4.7c-.3-.6-.6-1.1-1.1-1.6-1.2-1.3-2.9-2-4.7-2h-59.4c-1.9 0-3.6.8-4.9 2.3-.4.5-.7 1-1 1.6l-33.6 4.5c-1.5.2-2.9 1-3.8 2.3-.8 1.1-1.2 2.5-1 3.9l4.2 31.1a5.18 5.18 0 0 0 2.1 3.6c1 .7 2.1 1.1 3.3 1.1h.7l28-3.7c1 2.2 3.2 3.8 5.8 3.8h59.4c2.7 0 4.9-1.6 5.9-3.9l29.1 3.9h.7c1.2 0 2.4-.4 3.3-1.1 1.2-.9 1.9-2.2 2.1-3.6l4.2-31.1c.2-1.4-.2-2.8-1-3.9-.6-1.5-2-2.3-3.5-2.5zm-139.2 1.8l32.9-4.4c0 .3-.1.5-.1.8v19.1l-2 2.4c-1.6 1.9-4.4 2.3-6.5.9l-26.2-18c.6-.5 1.2-.8 1.9-.8zm5.1 38.5c-1 .1-2-.1-2.8-.7s-1.3-1.5-1.4-2.5l-4.2-31.1c-.1-.7 0-1.4.3-2l26.3 18c1.2.8 2.5 1.2 3.8 1.2 1.9 0 3.8-.8 5.1-2.4l.7-.8v15.6c0 .3 0 .6.1.9l-27.9 3.8zm34.1-46.8h9.5 2.2 37.1 2.2 8.4c1.2 0 2.4.5 3.2 1.3l-.2.2-1.7 1.5-6.5 5.8-1.3 1.2-8.5 7.6-2 1.8-8.7 7.8c-2.3 2.1-5.7 2.1-8.1 0l-7.3-6.6-2-1.8-9.1-8.2-1.3-1.2-7-6.3-1.7-1.5-.3-.3c.7-.8 1.9-1.3 3.1-1.3zm64.1 20.4v2.7 19 .5c-.1.6-.3 1.2-.5 1.7-.8 1.4-2.3 2.4-4.1 2.4h-59.5a4.58 4.58 0 0 1-4-2.3c-.3-.5-.5-1.1-.6-1.7 0-.2-.1-.4-.1-.7V58.7 56 38.9c0-.3 0-.7.1-1s.1-.5.3-.8l.8.7 8.1 7.3 1.3 1.2 10.6 9.5 2 1.8 5.9 5.3c1.5 1.4 3.4 2.1 5.2 2.1 1.9 0 3.7-.7 5.2-2.1l7.1-6.4 2-1.8 10-9 1.3-1.2 7.6-6.9.6-.6c.1.2.2.4.2.7.1.4.1.8.1 1.2v15.8h.4zm35.7-12.1c.7.1 1.3.4 1.9.8l-26.2 17.9c-2.1 1.4-4.9 1-6.5-.9l-3.1-3.7V38.9c0-.3 0-.6-.1-.9l34 4.6zm3.2 4.2l-4.2 31.1c-.1 1-.6 1.9-1.4 2.5s-1.8.9-2.8.7l-28.8-3.9v-.8-17l1.8 2.1c1.3 1.5 3.2 2.4 5.1 2.4 1.3 0 2.6-.4 3.8-1.2l26.3-18c.2.7.3 1.4.2 2.1z" fill="currentColor"/>
</svg>
