<svg width="426px" height="152px" viewBox="0 0 426 152" version="1.1" xmlns="http://www.w3.org/2000/svg">
    <g stroke="none" stroke-width="1" fill="none" fill-rule="evenodd">
        <g transform="translate(0.000000, 144.000086)" fill="#D0E0FF">
            <path d="M424.22558,0 L1.77441974,0 C0.798652447,0 0,0.729406743 0,1.62057192 L0,6.37942808 C0,7.27059326 0.798652447,8 1.77441974,8 L424.22558,8 C425.201815,8 426,7.27059326 426,6.37942808 L426,1.62057192 C426,0.729406743 425.201815,0 424.22558,0"></path>
        </g>
        <path d="M386.408809,119.984285 C386.408809,119.984285 369.989714,78.814337 376.116537,63.1306496 C382.24293,47.4469622 398.416746,79.3044656 386.408809,119.984285" fill="#94D7CA"></path>
        <path d="M382.982505,117.752932 C382.278025,116.886079 376.269332,110.425487 369.343955,107.487293 C364.340863,105.364834 357.820992,107.635062 357.194263,105.370418 C355.99493,101.036152 370.034689,80.772489 385.064155,116.146805 C386.045701,118.457412 386.689183,120.921371 386.781109,121.520608 C386.882485,122.179984 383.686984,118.619785 382.982505,117.752932" fill="#7CC0B3"></path>
        <path d="M386.486645,120.57957 C386.486645,120.57957 392.362605,83.5441429 403.580151,81.5853465 C414.797267,79.6269797 405.538517,103.486065 386.486645,120.57957" fill="#7CC0B3"></path>
        <polygon fill="#82AEFE" points="404.187549 117.000086 368.823113 117.000086 377.66433 144.000086 395.346333 144.000086"></polygon>
        <polygon fill="#6797EF" points="368.82307 121.714813 404.187506 121.714813 404.187506 117.294204 368.82307 117.294204"></polygon>
        <path d="M330.376848,144 L92.056326,144 C87.876506,144 83.7970757,142.015144 82.06917,138.608657 C81.3132402,137.119407 81.2919594,135.59574 81.211,134 C81.211,134 343.211,134.019031 343.211,134.019031 C343.211,139.531441 337.465193,144 330.376848,144" fill="#82AEFE"></path>
        <path d="M118.105963,0 L306.616488,0 C313.185758,0 318.511451,5.32569242 318.511451,11.8949628 L318.511451,134.235972 L106.211,134.235972 L106.211,11.8949628 C106.211,5.32569242 111.536692,0 118.105963,0" fill="#BBD3FF"></path>
        <polygon fill="#FFFFFF" points="114.478191 134.228755 309.682559 134.228755 309.682559 24.6414006 114.478191 24.6414006"></polygon>
        <path d="M301.716787,8.14141925 L122.443963,8.14141925 C118.044833,8.14141925 114.478191,11.9941483 114.478191,16.7459478 L114.478191,24.6412718 L309.682559,24.6412718 L309.682559,16.7459478 C309.682559,11.9941483 306.116347,8.14141925 301.716787,8.14141925" fill="#405bb5"></path>
        <line x1="133.211" y1="65.2147803" x2="192.665195" y2="65.2147803" stroke="#BBD3FF" stroke-width="6" stroke-linecap="round" stroke-linejoin="round"></line>
        <line x1="133.211" y1="79.2147803" x2="178.969944" y2="79.2147803" stroke="#BBD3FF" stroke-width="6" stroke-linecap="round" stroke-linejoin="round"></line>
        <line x1="133.211" y1="93.2147803" x2="195.079755" y2="93.2147803" stroke="#BBD3FF" stroke-width="6" stroke-linecap="round" stroke-linejoin="round"></line>
        <!--<rect fill="#E4EDFF" x="218.211" y="43" width="72" height="72" rx="8"></rect>-->
        <g transform="translate(235.211000, 60.000000)">
            <path d="M19.2138164,38.4276329 C29.8252521,38.4276329 38.4276329,29.8252521 38.4276329,19.2138164 C38.4276329,8.60238074 29.8252521,0 19.2138164,0 C8.60238074,0 0,8.60238074 0,19.2138164 C0,29.8252521 8.60238074,38.4276329 19.2138164,38.4276329" fill="#db2c00"></path>
            <path d="M16.3882527,28.7380772 C16.3882527,27.6989701 16.9423859,26.7389021 17.8423153,26.2195634 C18.7422448,25.699795 19.8509407,25.699795 20.7504406,26.2195634 C21.6503701,26.7389021 22.2049329,27.6989701 22.2049329,28.7380772 C22.2049329,30.3442043 20.9025051,31.6462025 19.296378,31.6462025 C17.6902509,31.6462025 16.3882527,30.3442043 16.3882527,28.7380772" fill="#FFFFFF"></path>
            <path d="M19.2965069,6.05358287 C20.5813226,6.05358287 21.6230071,7.09526734 21.6230071,8.38008312 L21.6230071,20.0134435 C21.6230071,21.2982593 20.5813226,22.3399438 19.2965069,22.3399438 C18.0116911,22.3399438 16.9700066,21.2982593 16.9700066,20.0134435 L16.9700066,8.38008312 C16.9700066,7.09526734 18.0116911,6.05358287 19.2965069,6.05358287" fill="#FFFFFF"></path>
        </g>
        <line x1="180" y1="16" x2="250" y2="16" stroke="#FFFFFF" stroke-width="6" stroke-linecap="round" stroke-linejoin="round"></line>
        <path d="M294.461981,16.2776408 C294.461981,14.6229734 293.120463,13.2814556 291.465796,13.2814556 C289.811128,13.2814556 288.469611,14.6229734 288.469611,16.2776408 C288.469611,17.9323083 289.811128,19.2738261 291.465796,19.2738261 C293.120463,19.2738261 294.461981,17.9323083 294.461981,16.2776408" fill="#FFFFFF"></path>
        <path d="M303.258094,16.2776408 C303.258094,14.6229734 301.916576,13.2814556 300.261908,13.2814556 C298.607241,13.2814556 297.265723,14.6229734 297.265723,16.2776408 C297.265723,17.9323083 298.607241,19.2738261 300.261908,19.2738261 C301.916576,19.2738261 303.258094,17.9323083 303.258094,16.2776408" fill="#FFFFFF"></path>
    </g>
</svg>
