
<svg xmlns="http://www.w3.org/2000/svg" xmlns:xlink="http://www.w3.org/1999/xlink" width="77" height="142">
  <defs><path id="rocket-path-A" d="M0 0h21.673v54.932H0z"/></defs>
  <g fill="none" fill-rule="evenodd">
    <path d="M56.695 103.198c-.458 23.694-12.623 38.593-18.247 38.593-5.633 0-17.638-14.875-18.044-38.593-.384-22.44 7.359-38.593 18.044-38.593s18.712 14.52 18.247 38.593" fill="#ffebd0"/>
    <path d="M56.695 85.882c-.458 24.476-12.623 39.865-18.247 39.865-5.633 0-17.638-15.366-18.044-39.865-.384-23.18 7.359-39.865 18.044-39.865S57.16 61.015 56.695 85.882" fill="#fff7ec"/>
    <path d="M56.695 96.446l13.928 11.235c2.798 1.569 6.259-.441 6.271-3.65.047-12.833-1.549-39.632-15.001-49.722-1.523-1.143-3.688-.033-3.6 1.87l-1.598 40.267z" fill="var(--accent-500)"/>
    <g transform="translate(0 53.293)">
      <mask id="rocket-mask-B" fill="#fff"><use xlink:href="#rocket-path-A"/></mask>
      <path d="M21.673 42.646L6.272 54.388c-2.798 1.569-6.259-.441-6.271-3.65C-.047 37.577 1.633 9.727 16.056.276c1.145-.75 2.66.125 2.597 1.492l3.019 40.878z" fill="var(--accent-500)" mask="url(#rocket-mask-B)"/>
    </g>
    <path d="M23.192 101.151h30.529a3.85 3.85 0 0 0 3.794-3.18l.746-4.255H18.717l.606 4.095a3.91 3.91 0 0 0 3.869 3.34" fill="var(--accent-200)"/>
    <path d="M62.502 56.587c0-19.783-6.564-35.359-12.828-45.725-3.156 1.847-7.033 2.939-11.227 2.939-4.216 0-8.112-1.103-11.277-2.968C20.59 21.207 13.467 36.81 14.492 56.587c.625 12.058 2.87 27.928 4.225 37.129h39.544c1.625-9.382 4.241-25.623 4.241-37.129" fill="var(--accent-100)"/>
    <path d="M49.674 10.862c-1.926-3.187-3.823-5.887-5.493-8.058-2.874-3.739-8.494-3.739-11.369 0-1.663 2.163-3.627 4.855-5.641 8.029 3.165 1.865 7.061 2.967 11.277 2.967 4.194 0 8.071-1.091 11.227-2.938" fill="var(--accent-500)"/>
    <path d="M48.773 37.806A10.33 10.33 0 0 0 38.447 27.48a10.33 10.33 0 0 0-10.325 10.326 10.33 10.33 0 0 0 10.325 10.326 10.33 10.33 0 0 0 10.326-10.326" fill="#fff"/>
    <g fill="var(--accent-500)">
      <path d="M38.447 26.171c-6.425 0-11.634 5.209-11.634 11.635S32.022 49.44 38.447 49.44s11.635-5.209 11.635-11.635-5.209-11.635-11.635-11.635zm0 2.617a9.02 9.02 0 0 1 9.017 9.017 9.02 9.02 0 0 1-9.017 9.017 9.02 9.02 0 0 1-9.017-9.017 9.02 9.02 0 0 1 9.017-9.017z" fill-rule="nonzero"/>
      <path d="M40.208 100.202a.55.55 0 0 1-.019.16l-.446 1.189-1.016 2.706-1.102 2.937-.702 1.882c-.019.051-.039.104-.075.146-.071.08-.191.063-.286.05-.114-.016-.203-.074-.263-.173-.139-.227-.149-.543-.17-.8l-.109-2.868c-.547-12.708-1.244-39.14 1.793-49.569.174-.597 1.052-.479 1.071.141l1.323 44.199z"/>
    </g>
  </g>
</svg>
