<svg version="1.1" viewBox="0 0 80 60" xmlns="http://www.w3.org/2000/svg">
<g fill="none" fill-rule="evenodd">
<rect x="4" y="2" width="72" height="56" rx="4" stroke="#aaa"/>
<rect x="10" y="9" width="60" height="2" fill="currentColor"/>
<rect x="10" y="13" width="23" height="2" fill="#bbb"/>
<rect x="60" y="13" width="10" height="2" fill="#bbb"/>
<rect x="48" y="13" width="10" height="2" fill="#bbb"/>
<rect x="60" y="17" width="10" height="2" fill="#bbb"/>
<rect x="48" y="17" width="10" height="2" fill="#bbb"/>
<rect x="60" y="21" width="10" height="2" fill="#bbb"/>
<rect x="48" y="21" width="10" height="2" fill="#bbb"/>
<rect x="60" y="25" width="10" height="2" fill="#bbb"/>
<rect x="48" y="25" width="10" height="2" fill="#bbb"/>
<rect x="60" y="29" width="10" height="2" fill="#bbb"/>
<rect x="48" y="29" width="10" height="2" fill="#bbb"/>
<rect x="60" y="33" width="10" height="2" fill="#bbb"/>
<rect x="48" y="33" width="10" height="2" fill="#bbb"/>
<rect x="60" y="37" width="10" height="2" fill="#bbb"/>
<rect x="48" y="37" width="10" height="2" fill="#bbb"/>
<rect x="60" y="41" width="10" height="2" fill="#bbb"/>
<rect x="48" y="41" width="10" height="2" fill="#bbb"/>
<rect x="60" y="45" width="10" height="2" fill="#bbb"/>
<rect x="48" y="45" width="10" height="2" fill="#bbb"/>
<rect x="10" y="17" width="20" height="2" fill="#bbb"/>
<rect x="10" y="21" width="26" height="2" fill="#bbb"/>
<rect x="10" y="25" width="23" height="2" fill="#bbb"/>
<rect x="10" y="29" width="23" height="2" fill="#bbb"/>
<rect x="10" y="33" width="20" height="2" fill="#bbb"/>
<rect x="10" y="37" width="26" height="2" fill="#bbb"/>
<rect x="10" y="41" width="30" height="2" fill="#bbb"/>
<rect x="10" y="45" width="17" height="2" fill="#bbb"/>
</g>
</svg>
