<svg xmlns="http://www.w3.org/2000/svg" width="200" height="96" fill-rule="nonzero" >
  <path d="M153.265 22.8l-23.5-4.1-15.5-2.7c-.2 0-.5-.1-.7-.1l-.4-.4-1.1-1.1c-.8-.8-1.8-1.2-3-1.3h-6.6l-24.4-.1c-1.2 0-2.4.5-3.3 1.4-.4.4-.7.9-1 1.4-.2.5-.4 1.1-.4 1.7v.1.6l-25.9 4.5c-2.3.4-3.8 2.6-3.4 4.9l8.9 51.3c.4 2 2.1 3.5 4.2 3.5.2 0 .5 0 .7-.1l14.9-2.6 1.6-.3s0 .1.1.1c.7.8 1.7 1.3 2.8 1.4h.6l45.2.1c1.2 0 2.4-.5 3.3-1.4l.3-.3.8.1 15.5 2.7c.2 0 .5.1.7.1a4.27 4.27 0 0 0 4.2-3.5l8.9-51.3c.3-2.1-1.3-4.2-3.5-4.6z" fill="var(--background)"/>
  <g fill="currentColor">
    <path d="M112.465 40.4h-27.8a1.54 1.54 0 0 1-1.5-1.5 1.54 1.54 0 0 1 1.5-1.5h27.8a1.54 1.54 0 0 1 1.5 1.5 1.54 1.54 0 0 1-1.5 1.5zm4.1 8.2h-31.8a1.54 1.54 0 0 1-1.5-1.5 1.54 1.54 0 0 1 1.5-1.5h31.8a1.54 1.54 0 0 1 1.5 1.5 1.47 1.47 0 0 1-1.5 1.5zm-3-17.2h12.4c-.1-.4-.3-.9-.7-1.3l-4.1-4.1-.8-.8-.7-.7-8.8-8.8c-.3-.3-.7-.5-1.1-.6v12.5c-.1 2.1 1.7 3.8 3.8 3.8zm-40.2 4.1l-15.8 2.8c-.8.1-1.3.9-1.2 1.7.1.7.7 1.2 1.4 1.2h.3l15.3-2.7v-.8-2.2zm0 9.3v-2.2l-14.5 2.6c-.8.1-1.3.9-1.2 1.7.1.7.7 1.2 1.4 1.2h.3l14-2.5v-.5-.3zm-.1 7.5v-2.5l-13.2 2.3c-.8.1-1.3.9-1.2 1.7.1.7.7 1.2 1.4 1.2h.3l12.7-2.2v-.5zm69.9-14l-15.4-2.7v1.6.4 1l14.9 2.6h.3c.7 0 1.3-.5 1.4-1.2.2-.8-.4-1.5-1.2-1.7zm-15.4 6.9v.5l13.6 2.4h.3c.7 0 1.3-.5 1.4-1.2.1-.8-.4-1.6-1.2-1.7l-14.1-2.5v2.1.4zm12.4 9.9h.3c.7 0 1.3-.5 1.4-1.2.1-.8-.4-1.6-1.2-1.7l-12.9-2.3v3l12.4 2.2z" opacity=".2"/>
    <path d="M153.265 22.8l-23.5-4.1-15.5-2.7c-.2 0-.5-.1-.7-.1l-.4-.4-1.1-1.1c-.8-.8-1.8-1.2-3-1.3h-6.6l-24.4-.1c-1.2 0-2.4.5-3.3 1.4-.4.4-.7.9-1 1.4-.2.5-.4 1.1-.4 1.7v.1.6l-25.9 4.5c-2.3.4-3.8 2.6-3.4 4.9l8.9 51.3c.4 2 2.1 3.5 4.2 3.5.2 0 .5 0 .7-.1l14.9-2.6 1.6-.3s0 .1.1.1c.7.8 1.7 1.3 2.8 1.4h.6l45.2.1c1.2 0 2.4-.5 3.3-1.4l.3-.3.8.1 15.5 2.7c.2 0 .5.1.7.1a4.27 4.27 0 0 0 4.2-3.5l8.9-51.3c.3-2.1-1.3-4.2-3.5-4.6zm-80.9 55.3l-14.8 2.6c-1.3.2-2.6-.7-2.8-2l-8.9-51.3c-.2-1.3.7-2.6 2-2.8l25.5-4.5v8.5h0v4.6 2.2.8 2.2 1.5.5 2.2.3.5 2.2 1.5.5 2.5.5l-.1 25.3v.8c0 .3 0 .6.1.9 0 .2.1.4.1.5h-1.1zm37.3-55.4v-4.3-3.3c.4.1.8.3 1.1.6l.4.4.4.4.9.9.4.4 6.7 6.7.7.7.8.8 4.1 4.1c.4.4.6.8.7 1.3h-12.4a3.76 3.76 0 0 1-3.8-3.6v-.2-4.9zm16.3 14.3v2.9 2.7 1.3V45v3l-.1 28.4v.3.5.2.1.1s0 .1-.1.1c-.1.1-.1.3-.2.4s-.1.2-.2.3l-.3.3c-.1.1-.2.2-.4.3-.1.1-.2.2-.4.2-.4.2-.8.3-1.3.3l-45.2-.1c-.8 0-1.4-.3-1.9-.8-.5-.4-.8-1-.9-1.6v-.5l.1-26.4v-1.4-1.6-1.3-.7V43v-.6-1.8-.5-2.4V36v-3-.3-3-10.5-1.4-.3-.1c.1-.6.4-1.2.8-1.6l.3-.3c.5-.4 1.1-.6 1.7-.6h1.5 6.6 16.3 5.5v12.7.1c0 1.3.5 2.4 1.2 3.4.6.8 1.4 1.3 2.3 1.7.7.3 1.4.4 2.1.4h12.5l.1 3.8zm29-9.7l-8.9 51.3c-.2 1.3-1.5 2.2-2.8 2l-13.4-2.3h0l-2.3-.4c0-.1 0-.2.1-.3l.2-1.3.1-23.5v-3-1.7-2.5-.5-.4-2.1-.9-1.6-1.6-1-.4-1.6-.5-2.3-.5-.3c0-1-.3-1.9-.8-2.6-.1-.2-.3-.3-.4-.5l-5-5-1.5-1.5-4.4-4.4 11.7 2h0l25.6 4.4c1.1.4 2 1.7 1.8 3z"/>
  </g>
</svg>
