<svg width="382px" height="220px" viewBox="0 0 382 220" fill-rule="nonzero" version="1.1" xmlns="http://www.w3.org/2000/svg">
<path d="M146.598 26.3c-1.2-1.5-3-2.3-5.1-2.3h-56c-1.9-2.3-3.1-3.3-5.5-3.3h-31.8a4.1 4.1 0 0 0-3.1 1.4c-.9 1.1-1.3 2.8-1 4.5l9.6 49.8c.7 3.8 4.5 6.9 8.4 6.9h66.6c1.8 0 3.6-.6 5.3-1.7 2.5-1.7 4.2-4.2 4.7-6.9l8.9-43.3c.5-1.8.1-3.6-1-5.1z" fill="var(--background)"/>
<g fill="currentColor">
  <path d="M141.498 25.9h-54.6l2.2 2.7h31.2c3.9 0 7.7 3.2 8.3 7.1l7 40.6c0 .2.1.5.1.7v.2.3a7.89 7.89 0 0 0 1.2-3l8.9-43.3c.3-1.4 0-2.8-.8-3.8-.7-1-2-1.5-3.5-1.5z" opacity=".2"/>
  <path d="M94.298 46.4h-32.3c-1.2 0-2.3 1-2.3 2.3h0c0 1.2 1 2.3 2.3 2.3h32.3c1.2 0 2.3-1 2.3-2.3h0c-.1-1.3-1.1-2.3-2.3-2.3zm9.1 9.5h-39.6c-1.2 0-2.3 1-2.3 2.3h0c0 1.2 1 2.3 2.3 2.3h39.7c1.2 0 2.3-1 2.3-2.3h0c-.1-1.3-1.1-2.3-2.4-2.3z" opacity=".3"/>
  <path d="M151.698 25.5c-.3 0-.5-.1-.7-.3-.3-.4-.2-.9.2-1.2l9.6-7.4c.4-.3.9-.2 1.2.2s.2.9-.2 1.2l-9.6 7.4c-.1 0-.3.1-.5.1zm4.1 7.9c-.4 0-.7-.2-.8-.6-.1-.5.1-1 .6-1.1l5.2-1.5c.5-.1 1 .1 1.1.6s-.1 1-.6 1.1l-5.2 1.5h-.3zm-11-14.5c-.2 0-.3 0-.5-.1-.4-.3-.5-.8-.3-1.2l3.3-5.2c.3-.4.8-.5 1.2-.3.4.3.5.8.3 1.2l-3.3 5.2c-.1.3-.4.4-.7.4z" opacity=".2"/>
  <path d="M141.498 24.1h-56c-1.9-2.4-3.1-3.4-5.5-3.4h-31.8a4.1 4.1 0 0 0-3.1 1.4c-.9 1.1-1.3 2.8-1 4.5l9.6 49.8c.7 3.8 4.5 6.9 8.4 6.9h66.6c1.8 0 3.6-.6 5.3-1.7 2.5-1.7 4.2-4.2 4.7-6.9l8.9-43.3c.4-2 0-3.8-1.2-5.2-1-1.3-2.8-2.1-4.9-2.1zm-8.2 55.6c-1 1.3-2.8 2-4.6 2h-64.9-1.7c-3 0-6.1-2.5-6.6-5.5l-9.6-49.8c-.2-1.2 0-2.3.6-3.1.4-.5 1-.8 1.7-.8h5.1 26.7c1.5 0 2.3.4 4.4 3 .3.4.7.8 1 1.3l2.8 3.4h.4 31.6c3.1 0 6.1 2.6 6.6 5.6.2.9.3 1.8.5 2.7l6.6 37.8c.2 1.3.1 2.5-.6 3.4zm12.7-48.5l-8.9 43.3c-.2 1-.6 2-1.2 3v-.3-.2c0-.2 0-.5-.1-.7l-7-40.6c-.7-3.9-4.4-7.1-8.3-7.1h-31.4l-2.2-2.7h54.5c1.5 0 2.9.6 3.7 1.6.9 1 1.2 2.3.9 3.7z"/>
</g>
</svg>
