<svg width="80px" height="60px" viewBox="0 0 80 60" version="1.1" xmlns="http://www.w3.org/2000/svg">
  <g stroke="none" stroke-width="1.25" fill="none" fill-rule="evenodd">
    <line x1="4.5" y1="28.5" x2="75.5" y2="28.5" stroke="#aaaaaa" stroke-linecap="square"></line>
    <rect stroke="#aaaaaa" x="4" y="2" width="72" height="56" rx="4"></rect>
    <circle fill="currentColor" cx="9.5" cy="8.5" r="2.5"></circle>
    <rect fill="#bbbbbb" x="14" y="7" width="14" height="3"></rect>
    <rect fill="#bbbbbb" x="31" y="7" width="25" height="3"></rect>
    <rect fill="#bbbbbb" x="59" y="7" width="12" height="3"></rect>
    <circle fill="currentColor" cx="9.5" cy="14.5" r="2.5"></circle>
    <circle fill="currentColor" cx="9.5" cy="20.5" r="2.5"></circle>
    <rect fill="#999999" x="8" y="32" width="7" height="3"></rect>
    <rect fill="#999999" x="8" y="37" width="57" height="3"></rect>
    <rect fill="#999999" x="8" y="42" width="57" height="3"></rect>
    <rect fill="#999999" x="8" y="47" width="38.3275862" height="3"></rect>
    <rect fill="#bbbbbb" x="14" y="13" width="14" height="3"></rect>
    <rect fill="#bbbbbb" x="31" y="13" width="25" height="3"></rect>
    <rect fill="#bbbbbb" x="59" y="13" width="12" height="3"></rect>
    <rect fill="#bbbbbb" x="14" y="19" width="14" height="3"></rect>
    <rect fill="#bbbbbb" x="31" y="19" width="25" height="3"></rect>
    <rect fill="#bbbbbb" x="59" y="19" width="12" height="3"></rect>
  </g>
</svg>
