<svg width="80px" height="60px" viewBox="0 0 80 60" version="1.1" xmlns="http://www.w3.org/2000/svg">
  <g stroke="none" stroke-width="1.25" fill="none" fill-rule="evenodd">
    <rect stroke="#aaaaaa" x="4" y="2" width="72" height="56" rx="4"></rect>
    <line x1="33.5" y1="2.5" x2="33.5" y2="57.5" stroke="#aaaaaa" stroke-linecap="square"></line>
    <circle fill="currentColor" cx="9.5" cy="10.5" r="2.5"></circle>
    <rect fill="#bbbbbb" x="14" y="7" width="15" height="3"></rect>
    <rect fill="#bbbbbb" x="14" y="11" width="15" height="3"></rect>
    <circle fill="currentColor" cx="9.5" cy="20.5" r="2.5"></circle>
    <rect fill="#bbbbbb" x="14" y="17" width="15" height="3"></rect>
    <rect fill="#bbbbbb" x="14" y="21" width="15" height="3"></rect>
    <circle fill="currentColor" cx="9.5" cy="30.5" r="2.5"></circle>
    <rect fill="#bbbbbb" x="14" y="27" width="15" height="3"></rect>
    <rect fill="#bbbbbb" x="14" y="31" width="15" height="3"></rect>
    <circle fill="currentColor" cx="9.5" cy="40.5" r="2.5"></circle>
    <rect fill="#bbbbbb" x="14" y="37" width="15" height="3"></rect>
    <rect fill="#bbbbbb" x="14" y="41" width="15" height="3"></rect>
    <rect fill="#999999" x="37" y="7" width="7" height="3"></rect>
    <rect fill="#999999" x="37" y="11" width="35" height="3"></rect>
    <rect fill="#999999" x="37" y="15" width="35" height="3"></rect>
    <rect fill="#999999" x="37" y="19" width="35" height="3"></rect>
    <rect fill="#999999" x="37" y="23" width="29.1891892" height="3"></rect>
  </g>
</svg>
