<?xml version="1.0" encoding="UTF-8"?>
<svg width="360px" height="128px" viewBox="0 0 360 128" version="1.1" xmlns="http://www.w3.org/2000/svg" xmlns:xlink="http://www.w3.org/1999/xlink">
    <g stroke="none" stroke-width="1" fill="none" fill-rule="evenodd">
        <g id="ox-logo-fill-group111" fill="var(--accent-600)" fill-rule="nonzero">
            <path d="M137.856,28.672 L137.856,99.328 C137.856,100.608 138.368,101.888 139.328,102.912 C138.368,101.952 137.088,101.44 135.744,101.44 L41.472,101.44 C40.192,101.44 38.912,101.952 37.952,102.912 C38.912,101.952 39.424,100.608 39.424,99.328 L39.424,28.672 C39.424,27.392 38.912,26.112 37.952,25.088 C38.912,26.048 40.192,26.56 41.472,26.56 L135.744,26.56 C137.024,26.56 138.304,26.048 139.328,25.088 C138.368,26.112 137.856,27.392 137.856,28.672 M177.216,91.136 L177.216,36.864 C177.216,16.512 160.704,0 140.352,0 L36.864,0 C16.512,0 0,16.512 0,36.864 L0,91.136 C0,111.488 16.512,128 36.864,128 L140.352,128 C160.704,128 177.216,111.488 177.216,91.136" id="Shape"></path>
            <path d="M265.856,86.4 C265.856,87.872 265.216,89.216 264.256,90.112 L229.44,124.928 C227.584,126.848 225.024,128 222.144,128 L172.16,128 L237.248,62.912 C238.208,62.016 239.424,61.44 240.832,61.44 C239.424,61.44 238.144,60.864 237.248,59.968 L177.28,0 L231.488,0 L264.256,32.768 C265.28,33.728 265.856,35.008 265.856,36.48 C265.856,35.008 266.496,33.664 267.456,32.768 L300.224,0 L354.432,0 L294.4,59.968 C293.44,60.864 292.224,61.44 290.816,61.44 C292.224,61.44 293.504,62.016 294.4,62.912 L359.552,128 L309.568,128 C306.688,128 304.128,126.784 302.272,124.928 L267.456,90.112 C266.432,89.216 265.856,87.872 265.856,86.4" id="Path"></path>
        </g>
    </g>
</svg>
