<?xml version="1.0" encoding="UTF-8"?>
<svg width="700px" height="700px" viewBox="0 0 700 700" version="1.1" xmlns="http://www.w3.org/2000/svg" xmlns:xlink="http://www.w3.org/1999/xlink">
    <g stroke="none" stroke-width="1" fill="none" fill-rule="evenodd">
        <g transform="translate(0.000000, 50.000000)">
            <path d="M343,0 C396.314017,0 442.132226,32.0933637 462.189323,78.0147843 L677.566657,450.747562 C689.147197,466.31444 696,485.606941 696,506.5 C696,558.138624 654.138624,600 602.5,600 C572.898594,600 546.51005,586.244105 529.378072,564.776021 L528.883249,565.103419 L526.716967,561.276379 C522.629008,555.630534 519.156503,549.509881 516.397882,543.012849 L358.601,263.806 L358.759953,263.831912 L356.445,259.991 L356.082677,259.349887 L356.059,259.351 L345,241 L334.838721,259.747979 C334.831403,259.747526 334.824084,259.747072 334.816766,259.746617 L179.406686,543.469726 C177.074864,548.88096 174.24673,554.028063 170.979619,558.8537 L167.553178,565.103419 L166.765832,564.595239 C149.63792,586.16685 123.184413,600 93.5,600 C41.8613759,600 0,558.138624 0,506.5 C0,487.649977 5.57812117,470.102794 15.1737265,455.419088 L226.655312,71.9368617 C228.210949,68.8257841 229.887698,65.785814 231.679381,62.8231311 L233.180856,60.1062061 L233.264561,60.2690651 C256.336918,24.0358165 296.861526,0 343,0 Z" fill="url(#logoGradient-1)"></path>
            <path d="M515.652476,171.462058 L516.944,172.774466 L677.566657,450.747562 C689.147197,466.31444 696,485.606941 696,506.5 C696,558.138624 654.138624,600 602.5,600 C572.898594,600 546.51005,586.244105 529.378072,564.776021 L528.883249,565.103419 L526.716967,561.276379 C522.629008,555.630534 519.156503,549.509881 516.397882,543.012849 L356.082677,259.349887 L355.647,259.39 L345,241 C407.185882,141.949411 464.07004,118.770097 515.652476,171.462058 Z" fill="url(#logoGradient-2)"></path>
        </g>
    </g>
</svg>
