<svg width="16" height="16" viewBox="0 0 16 16" class="bi bi-ox-address-book" fill="currentColor" xmlns="http://www.w3.org/2000/svg" xmlns:xlink="http://www.w3.org/1999/xlink">
<g fill-rule="evenodd">
  <g transform="translate(1)">
    <path d="M2 0h10.001a2 2 0 0 1 2 2v12.001a2 2 0 0 1-2 2H2a2 2 0 0 1-2-2v-1h1v1a1 1 0 0 0 1 1h10.001a1 1 0 0 0 1-1V2a1 1 0 0 0-1-1H2a1 1 0 0 0-1 1v1H0V2a2 2 0 0 1 2-2" />
  </g>
  <path d="M1 11v-.5a.5.5 0 0 1 1 0v.5h.5a.5.5 0 0 1 0 1h-2a.5.5 0 0 1 0-1H1Zm0-3v-.5a.5.5 0 0 1 1 0V8h.5a.5.5 0 0 1 0 1h-2a.5.5 0 0 1 0-1H1Zm0-3v-.5a.5.5 0 1 1 1 0V5h.5a.5.5 0 1 1 0 1h-2a.5.5 0 0 1 0-1H1ZM8.266 8.157a2.263 2.263 0 1 0 0-4.526 2.263 2.263 0 0 0 0 4.526M8.278 8.916c-3.758 0-4.388 2.222-4.49 2.903a.74.74 0 0 0 .17.594.753.753 0 0 0 .57.262h7.501a.75.75 0 0 0 .585-.28.735.735 0 0 0 .148-.618c-.184-.86-.99-2.86-4.484-2.86"/>
</g>
</svg>
