<svg width="16" height="16" viewBox="0 0 16 16" fill="currentColor" class="bi bi-ox-tasks" xmlns="http://www.w3.org/2000/svg" xmlns:xlink="http://www.w3.org/1999/xlink">
<g fill-rule="evenodd">
  <path d="M7.655 15H2.592a.793.793 0 0 1-.792-.792V1.792c0-.437.355-.792.792-.792h9.104c.437 0 .792.355.792.792v4.785a5.31 5.31 0 0 1 1 .237V1.792C13.488.807 12.682 0 11.696 0H2.592C1.606 0 .8.807.8 1.792v12.416C.8 15.193 1.606 16 2.592 16h6.135c-.141-.101-.287-.193-.42-.31a5.373 5.373 0 0 1-.652-.69" />
  <path d="m10.899 7.081-.021.006c.007-.003.014-.003.02-.006"/>
  <path d="M10.723 4.6H3.531a.5.5 0 1 1 0-1h7.192a.5.5 0 0 1 0 1M10.723 6.215H3.531a.5.5 0 1 0 0 1h5.61a5.11 5.11 0 0 1 2.05-.666.496.496 0 0 0-.468-.334M3.531 8.83a.5.5 0 0 0 0 1h3.35c.138-.347.304-.684.516-1H3.531Z" />
  <g transform="translate(7.5 7.5)">
    <path d="m6.436 3.242-.605.767-1.062 1.348-.44.558a.53.53 0 0 1-.385.201l-.032.001a.531.531 0 0 1-.375-.154L2.106 4.538a.532.532 0 0 1 .749-.753l1.009 1.004.905-1.148.833-1.057a.588.588 0 0 1 .432-.195c.11 0 .22.033.314.107.23.182.27.516.088.746M5.831.311A4.21 4.21 0 0 0 4.769.052C4.597.031 4.427 0 4.25 0 3.221 0 2.29.38 1.555.988c-.13.107-.251.223-.369.342a3.814 3.814 0 0 0-.432.508 4.464 4.464 0 0 0-.289.492A4.2 4.2 0 0 0 0 4.25c0 1.276.574 2.408 1.465 3.187a4.212 4.212 0 0 0 2.623 1.046c.055.002.106.017.162.017A4.25 4.25 0 0 0 8.5 4.25 4.245 4.245 0 0 0 5.831.311" />
  </g>
</g>
</svg>
